<svg width="440" height="120" viewBox="0 0 440 120" fill="none" xmlns="http://www.w3.org/2000/svg">
<path d="M422.51 87.1355V65.7032H390.484C390.192 70.6753 389.558 75.4036 388.583 79.8882C387.657 84.3728 386.268 88.833 384.415 93.2688H373.74C376.031 88.9305 377.737 84.519 378.858 80.0344C380.028 75.5011 380.76 70.724 381.052 65.7032H371.985V56.7828H381.271V30.972H390.721L391.745 26H401.25L400.226 30.972H431.869V56.7828H439.4V65.7032H431.869V93.2688H418.403L422.51 87.1355ZM422.51 56.7828V39.7462H390.631V56.7828H422.51ZM409.641 69.6516L413.151 84.714H403.646L400.136 69.6516H409.641ZM409.641 42.1591L411.981 54.443H402.476L400.136 42.1591H409.641Z" fill="white"/>
<path d="M350.999 86.7634V61.9742H322.776C322.288 69.676 320.095 76.281 316.195 81.7892C312.344 87.2487 306.544 91.1971 298.793 93.6344V82.7398C303.814 80.7412 307.494 77.5728 309.834 73.2344C312.222 68.8473 313.417 63.6803 313.417 57.7333V42.3785H299.67V33.0194H327.748V26H337.399V33.0194H365.477V42.3785H322.922V52.6151H360.432V93.2688H345.544L350.999 86.7634Z" fill="white"/>
<path d="M278.247 85.6172V47.5699H253.899V54.1506C253.899 64.1434 251.583 72.5764 246.952 79.4495C242.37 86.2738 235.327 91.124 225.821 94V82.7398C231.768 80.4 236.302 76.8903 239.421 72.2108C242.541 67.5312 244.101 61.3649 244.101 53.7118V47.5699H228.161V37.9183H244.101V26.7312H253.899V37.9183H287.752V93.2688H272.208L278.247 85.6172Z" fill="white"/>
<path d="M218.144 68.4088H204.763V71.1872H220.118V79.0109H206.006C208.249 80.522 210.54 81.8138 212.88 82.8862C215.219 83.9098 217.827 84.8116 220.703 85.5916V94.0002C216.024 92.5865 212.1 91.1973 208.931 89.8324C205.763 88.5163 202.692 86.6639 199.718 84.2754C196.599 86.7614 193.406 88.6869 190.14 90.0518C186.874 91.4654 183.072 92.7815 178.733 94.0002V85.5916C181.609 84.8116 184.193 83.9098 186.484 82.8862C188.824 81.8138 191.115 80.522 193.357 79.0109H179.318V71.1872H195.258V68.4088H181.951V42.598H218.144V68.4088ZM152.191 89.4668C153.264 84.1536 153.946 78.5966 154.239 72.7958C154.531 66.9951 154.677 59.927 154.677 51.5915V47.0582H161.697L161.77 61.4625C161.77 66.8733 161.624 71.8453 161.331 76.3786C161.039 80.8632 160.503 85.226 159.723 89.4668H152.191ZM153.508 34.9937H163.232V27.0969H172.518V34.9937H179.318V44.0604H172.665V52.0303L177.856 56.5636V67.6045L172.665 63.0711V93.269H163.671V44.0604H153.508V34.9937ZM180.269 30.0948H185.314V27.0969H193.942V30.0948H206.08V27.0969H214.708V30.0948H219.753V38.1378H214.708V41.4281H206.08V38.1378H193.942V41.4281H185.314V38.1378H180.269V30.0948ZM210.174 61.9012V58.6109H189.92V61.9012H210.174ZM210.174 52.469V49.1786H189.92V52.469H210.174Z" fill="white"/>
<path d="M110.561 27.6821C116.535 37.0102 120 48.1008 120 60.0005C120 93.1374 93.137 120 60 120C59.4936 120 58.9887 119.993 58.4854 119.981L57.8867 118.738C53.2311 108.921 50.1339 98.5554 46.7891 86.2603C55.5088 82.6248 63.1963 79.3931 70.9062 75.5151C72.2677 79.5662 73.7127 83.5392 75.2256 87.5278C76.6376 91.25 80.1903 89.6976 79 85.7505C77.6949 81.423 76.4936 77.2551 75.3984 73.1802C81.1943 70.0662 87.1178 66.4795 93.6055 61.978C101.083 56.1187 96.6461 56.2605 92.0449 58.5659C87.2527 60.9671 81.1756 63.852 73.8438 67.1479C71.7366 58.5822 70.1474 50.2806 69.167 41.5649C68.9034 39.2218 68.6642 36.7561 68.4551 34.2183C81.1535 31.3689 94.975 29.0863 110.561 27.6821ZM40.6221 88.769C44.802 101.15 49.7762 112.363 53.7627 119.678C37.0372 117.951 22.351 109.354 12.5732 96.7554C21.7757 94.8052 31.3212 92.3275 40.6221 88.769ZM59.8115 0.00146484C59.2791 8.78184 59.5165 19.9702 60.5713 29.7388C52.1249 31.2326 44.1679 33.0214 36.4775 35.1138C36.1456 31.2784 35.9785 27.7733 35.9785 24.7251C35.9784 22.5161 34.1866 20.7251 31.9775 20.7251C29.7687 20.7254 27.9777 22.5163 27.9775 24.7251C27.9775 28.4366 28.2867 32.6957 28.8428 37.3169C25.008 38.4862 21.2222 39.7327 17.458 41.064C15.3753 41.8005 14.2839 44.0867 15.0205 46.1694C15.7573 48.2518 18.0424 49.3425 20.125 48.606C23.3792 47.4551 26.6546 46.3172 29.9678 45.1987C31.5664 55.0038 34.003 65.8286 36.8105 76.2466C37.3004 78.0643 37.8184 79.877 38.3584 81.6763C28.0246 85.2379 17.4785 88.1324 7.83398 89.6616C2.84899 80.9133 5.15257e-05 70.7898 0 60.0005C0 26.9263 26.7611 0.103097 59.8115 0.00146484ZM61.3799 35.8931C61.7772 38.412 62.2384 40.7536 62.7676 42.8315C64.3385 52.6323 66.4442 61.2292 68.9209 69.3394C64.8155 71.1485 60.3706 73.0653 55.5898 75.0776C52.1233 76.5368 48.5491 77.961 44.918 79.3198C44.4677 77.639 44.0084 75.9218 43.5352 74.1655C40.6342 63.4007 38.5446 52.43 37.3076 42.7798C44.9985 40.312 52.9542 37.9844 61.3799 35.8931ZM67.7881 0.501465C84.4699 2.66367 99.0024 11.6769 108.47 24.6274C93.5172 25.383 80.2423 26.6684 68.043 28.5161C67.4353 18.7925 67.2786 8.58846 67.7881 0.501465Z" fill="white"/>
</svg>
